<mxfile host="app.diagrams.net" modified="2021-06-08T03:24:01.467Z" agent="5.0 (Windows NT 10.0; Win64; x64) AppleWebKit/537.36 (KHTML, like Gecko) Chrome/91.0.4472.77 Safari/537.36" etag="zJbpBXBbLjZo9Ld5Q4JI" version="14.7.6" type="github">
  <diagram id="V0y6-ZIerVBITiBBVvoy" name="第 1 页">
    <mxGraphModel dx="1547" dy="944" grid="1" gridSize="10" guides="1" tooltips="1" connect="1" arrows="1" fold="1" page="1" pageScale="1" pageWidth="1169" pageHeight="827" math="0" shadow="0">
      <root>
        <mxCell id="0" />
        <mxCell id="1" parent="0" />
        <mxCell id="1jX2YD6o8cLYHH1xQEam-1" value="&lt;font style=&quot;font-size: 18px&quot;&gt;注册/登录&lt;/font&gt;" style="rounded=0;whiteSpace=wrap;html=1;" vertex="1" parent="1">
          <mxGeometry x="101" y="220" width="98" height="30" as="geometry" />
        </mxCell>
        <mxCell id="1jX2YD6o8cLYHH1xQEam-6" value="&lt;font style=&quot;font-size: 24px&quot;&gt;H5&lt;/font&gt;" style="text;html=1;strokeColor=none;fillColor=none;align=center;verticalAlign=middle;whiteSpace=wrap;rounded=0;direction=west;" vertex="1" parent="1">
          <mxGeometry x="130" y="90" width="40" height="20" as="geometry" />
        </mxCell>
        <mxCell id="1jX2YD6o8cLYHH1xQEam-7" value="&lt;span style=&quot;font-size: 24px&quot;&gt;小程序&lt;/span&gt;" style="text;html=1;strokeColor=none;fillColor=none;align=center;verticalAlign=middle;whiteSpace=wrap;rounded=0;direction=west;" vertex="1" parent="1">
          <mxGeometry x="530" y="90" width="90" height="20" as="geometry" />
        </mxCell>
        <mxCell id="1jX2YD6o8cLYHH1xQEam-8" value="&lt;font style=&quot;font-size: 24px&quot;&gt;App&lt;/font&gt;" style="text;html=1;strokeColor=none;fillColor=none;align=center;verticalAlign=middle;whiteSpace=wrap;rounded=0;direction=west;" vertex="1" parent="1">
          <mxGeometry x="980" y="90" width="40" height="20" as="geometry" />
        </mxCell>
        <mxCell id="1jX2YD6o8cLYHH1xQEam-9" value="&lt;font style=&quot;font-size: 18px&quot;&gt;申请&lt;/font&gt;" style="rounded=0;whiteSpace=wrap;html=1;" vertex="1" parent="1">
          <mxGeometry x="112" y="360" width="76" height="30" as="geometry" />
        </mxCell>
        <mxCell id="1jX2YD6o8cLYHH1xQEam-10" value="&lt;font style=&quot;font-size: 18px&quot;&gt;激活&lt;/font&gt;" style="rounded=0;whiteSpace=wrap;html=1;" vertex="1" parent="1">
          <mxGeometry x="112" y="490" width="76" height="30" as="geometry" />
        </mxCell>
      </root>
    </mxGraphModel>
  </diagram>
</mxfile>
